<?xml version="1.0" encoding="utf-8"?>
<!-- Generator: Adobe Illustrator 26.2.1, SVG Export Plug-In . SVG Version: 6.00 Build 0)  -->
<svg version="1.1" id="Camada_1" xmlns="http://www.w3.org/2000/svg" xmlns:xlink="http://www.w3.org/1999/xlink" x="0px" y="0px"
	 viewBox="0 0 300 300" style="enable-background:new 0 0 300 300;" xml:space="preserve">
<style type="text/css">
	.st0{fill:#03A303;}
	.st1{fill:#666666;}
</style>
<path class="st0" d="M138.33,142.63c-0.29-0.67-0.65-1.69-0.85-2.96c-0.63-4.09,1.02-7.29,1.49-8.19c1.59-2.99,3.89-4.61,5.04-5.31
	c-0.85,0.58-3.95,2.82-5.19,7.16c-1.25,4.35,0.2,7.9,0.61,8.84c1.22-0.49,2.99-1.4,4.64-3.08c0.24-0.25,2.15-2.2,2.81-4.3
	c0.38-1.21,0.47-2.29,0.48-2.31l0,0c0.2-1.36,0.28-2.59,0.33-3.2c0.12-1.29,0.18-2.02,0.55-2.91c0.55-1.36,1.4-2.15,1.57-2.31
	c1.01-0.92,2.1-1.28,2.71-1.43c-1.28-0.34-3.36-0.72-5.85-0.35c-0.73,0.11-6.45,1.06-9.91,6.25c-2.62,3.93-3.88,10.18-1.07,13.48
	c0.45,0.53,0.93,0.89,1.26,1.11c0.51,1.16,1.96,4,5.2,6.13c3.34,2.19,6.64,2.33,7.89,2.32c-1.56-0.3-4.85-1.15-7.89-3.86
	C140.12,145.89,138.96,143.93,138.33,142.63z"/>
<path class="st0" d="M167.95,118.72c0.7,0.2,1.72,0.55,2.84,1.19c3.58,2.07,5.05,5.36,5.45,6.29c1.33,3.11,1.16,5.92,0.99,7.26
	c0.08-1.03,0.27-4.84-2.33-8.53c-2.61-3.69-6.28-4.79-7.27-5.05c-0.38,1.25-0.78,3.2-0.51,5.54c0.04,0.34,0.37,3.05,1.6,4.88
	c0.71,1.06,1.49,1.8,1.5,1.82l0,0c0.93,1.01,1.84,1.84,2.29,2.26c0.93,0.9,1.46,1.41,1.93,2.25c0.71,1.28,0.8,2.44,0.82,2.67
	c0.09,1.36-0.32,2.44-0.58,3c1.07-0.78,2.66-2.17,3.94-4.35c0.37-0.64,3.21-5.69,1.34-11.64c-1.42-4.51-5.51-9.4-9.84-9.27
	c-0.7,0.02-1.27,0.17-1.65,0.29c-1.22-0.32-4.35-0.98-8.03,0.21c-3.8,1.23-5.97,3.72-6.75,4.7c1.21-1.03,3.93-3.06,7.95-3.74
	C164.29,118.08,166.54,118.4,167.95,118.72z"/>
<path class="st0" d="M174.94,155.3c-0.5,0.53-1.29,1.26-2.39,1.95c-3.51,2.19-7.1,1.94-8.11,1.85c-3.37-0.29-5.77-1.76-6.87-2.54
	c0.87,0.56,4.15,2.52,8.62,1.95c4.49-0.56,7.18-3.29,7.88-4.04c-0.93-0.92-2.46-2.19-4.65-3.05c-0.32-0.13-2.87-1.11-5.06-0.89
	c-1.26,0.13-2.29,0.47-2.31,0.47l0,0c-1.33,0.35-2.49,0.76-3.07,0.95c-1.23,0.4-1.93,0.63-2.89,0.64c-1.47,0.03-2.53-0.44-2.74-0.54
	c-1.24-0.56-2-1.43-2.38-1.93c0.19,1.31,0.66,3.37,1.99,5.52c0.39,0.63,3.51,5.51,9.64,6.65c4.65,0.86,10.89-0.44,12.81-4.33
	c0.31-0.63,0.45-1.2,0.52-1.6c0.86-0.93,2.91-3.37,3.59-7.19c0.7-3.93-0.47-7.02-0.97-8.17c0.34,1.55,0.85,4.91-0.44,8.77
	C177.23,152.38,175.89,154.21,174.94,155.3z"/>
<g>
	<g>
	</g>
</g>
<g>
	<g>
		<path class="st1" d="M150.43,132.61h0.98l3.33,8.64l-0.17,0.19v-8.82h1.03v10.51h-0.99l-3.32-8.64l0.17-0.19v8.83h-1.03V132.61z"
			/>
		<path class="st1" d="M157.04,132.61h1.04v10.52h-1.04V132.61z M157.8,138.08h2.24c0.21,0,0.4-0.05,0.55-0.14
			c0.15-0.09,0.27-0.23,0.35-0.41c0.08-0.18,0.12-0.4,0.12-0.65v-2.05c0-0.27-0.04-0.49-0.12-0.68c-0.08-0.19-0.2-0.33-0.35-0.42
			c-0.15-0.1-0.34-0.14-0.55-0.14h-2.24v-0.97H160c0.44,0,0.82,0.09,1.14,0.26c0.32,0.17,0.56,0.43,0.72,0.76
			c0.17,0.33,0.25,0.73,0.25,1.2v2.06c0,0.46-0.08,0.85-0.25,1.17c-0.17,0.32-0.41,0.57-0.72,0.74c-0.32,0.17-0.7,0.25-1.14,0.25
			h-2.19V138.08z"/>
		<path class="st1" d="M163.52,132.6h1.04v10.52h-1.04V132.6z M164.16,137.71h1.95c0.31,0,0.58-0.06,0.81-0.17
			c0.22-0.12,0.4-0.29,0.51-0.51s0.18-0.49,0.18-0.81v-1.08c0-0.33-0.06-0.61-0.18-0.84s-0.29-0.41-0.51-0.54
			c-0.22-0.12-0.49-0.18-0.81-0.18h-1.95v-0.97h1.87c0.55,0,1.02,0.09,1.41,0.28s0.69,0.46,0.89,0.82c0.21,0.36,0.31,0.79,0.31,1.29
			v1.23c0,0.52-0.1,0.96-0.31,1.33c-0.21,0.37-0.5,0.65-0.89,0.84c-0.39,0.19-0.86,0.29-1.41,0.29h-1.87V137.71z M166.34,138.35
			l0.93-0.33l1.68,5.11h-1.21L166.34,138.35z"/>
	</g>
</g>
</svg>
