<?xml version="1.0" encoding="utf-8"?>
<!-- Generator: Adobe Illustrator 26.2.1, SVG Export Plug-In . SVG Version: 6.00 Build 0)  -->
<svg version="1.1" id="Camada_1" xmlns="http://www.w3.org/2000/svg" xmlns:xlink="http://www.w3.org/1999/xlink" x="0px" y="0px"
	 viewBox="0 0 100 100" style="enable-background:new 0 0 100 100;" xml:space="preserve">
<style type="text/css">
	.st0{fill:#03A303;}
	.st1{fill:#666666;}
</style>
<path class="st0" d="M39.46,50.3c-0.18-0.41-0.4-1.03-0.52-1.81c-0.39-2.49,0.62-4.45,0.91-4.99c0.97-1.82,2.37-2.81,3.08-3.24
	c-0.52,0.35-2.41,1.72-3.17,4.37c-0.76,2.65,0.12,4.82,0.37,5.39c0.74-0.3,1.82-0.85,2.83-1.88c0.15-0.15,1.31-1.34,1.71-2.63
	c0.23-0.74,0.29-1.4,0.29-1.41l0,0c0.12-0.83,0.17-1.58,0.2-1.95c0.07-0.79,0.11-1.23,0.33-1.78c0.34-0.83,0.85-1.31,0.96-1.41
	c0.62-0.56,1.28-0.78,1.65-0.87c-0.78-0.21-2.05-0.44-3.57-0.21c-0.45,0.07-3.93,0.64-6.05,3.81c-1.6,2.4-2.37,6.21-0.65,8.22
	c0.28,0.32,0.57,0.54,0.77,0.67c0.31,0.71,1.19,2.44,3.17,3.74c2.04,1.34,4.05,1.42,4.82,1.42c-0.95-0.18-2.96-0.7-4.81-2.35
	C40.55,52.28,39.85,51.09,39.46,50.3z"/>
<path class="st0" d="M57.53,35.71c0.43,0.12,1.05,0.33,1.73,0.73c2.19,1.26,3.08,3.27,3.32,3.84c0.81,1.9,0.71,3.61,0.6,4.43
	c0.05-0.63,0.17-2.96-1.42-5.2c-1.59-2.25-3.83-2.92-4.44-3.08c-0.23,0.77-0.48,1.95-0.31,3.38c0.02,0.21,0.23,1.86,0.97,2.98
	c0.43,0.64,0.91,1.1,0.92,1.11l0,0c0.57,0.62,1.12,1.12,1.39,1.38c0.57,0.55,0.89,0.86,1.18,1.37c0.43,0.78,0.49,1.49,0.5,1.63
	c0.05,0.83-0.19,1.49-0.36,1.83c0.65-0.48,1.63-1.32,2.4-2.65c0.23-0.39,1.96-3.47,0.81-7.1c-0.87-2.75-3.36-5.73-6-5.66
	c-0.43,0.01-0.78,0.1-1.01,0.18c-0.75-0.2-2.65-0.6-4.9,0.13c-2.32,0.75-3.64,2.27-4.12,2.87c0.74-0.63,2.4-1.87,4.85-2.28
	C55.3,35.32,56.68,35.51,57.53,35.71z"/>
<path class="st0" d="M61.8,58.03c-0.31,0.32-0.79,0.77-1.46,1.19c-2.14,1.34-4.33,1.18-4.95,1.13c-2.06-0.17-3.52-1.07-4.19-1.55
	c0.53,0.34,2.53,1.54,5.26,1.19c2.74-0.34,4.38-2.01,4.81-2.47c-0.57-0.56-1.5-1.34-2.84-1.86c-0.2-0.08-1.75-0.67-3.09-0.54
	c-0.77,0.08-1.4,0.28-1.41,0.29l0,0c-0.81,0.21-1.52,0.46-1.88,0.58c-0.75,0.24-1.17,0.38-1.76,0.39c-0.89,0.02-1.54-0.27-1.67-0.33
	c-0.76-0.34-1.22-0.87-1.45-1.17c0.12,0.8,0.4,2.06,1.21,3.37c0.24,0.39,2.14,3.36,5.88,4.06c2.83,0.53,6.64-0.27,7.82-2.64
	c0.19-0.38,0.27-0.73,0.32-0.97c0.53-0.56,1.78-2.06,2.19-4.39c0.43-2.4-0.29-4.28-0.59-4.98c0.21,0.95,0.52,2.99-0.27,5.35
	C63.19,56.24,62.37,57.36,61.8,58.03z"/>
<g>
	<g>
	</g>
</g>
<g>
	<g>
		<path class="st1" d="M46.85,44.18h0.6l2.03,5.27l-0.11,0.11v-5.38H50v6.41h-0.6l-2.03-5.27l0.11-0.11v5.38h-0.63V44.18z"/>
		<path class="st1" d="M50.88,44.18h0.64v6.42h-0.64V44.18z M51.34,47.52h1.37c0.13,0,0.24-0.03,0.33-0.09
			c0.09-0.06,0.17-0.14,0.21-0.25s0.07-0.24,0.07-0.4v-1.25c0-0.16-0.02-0.3-0.07-0.41s-0.12-0.2-0.21-0.26
			c-0.09-0.06-0.21-0.09-0.34-0.09h-1.37v-0.59h1.34c0.27,0,0.5,0.05,0.7,0.16c0.19,0.11,0.34,0.26,0.44,0.46s0.15,0.44,0.15,0.73
			v1.26c0,0.28-0.05,0.52-0.15,0.71c-0.1,0.2-0.25,0.35-0.44,0.45c-0.19,0.1-0.42,0.15-0.7,0.15h-1.34V47.52z"/>
		<path class="st1" d="M54.83,44.18h0.64v6.42h-0.64V44.18z M55.22,47.29h1.19c0.19,0,0.35-0.04,0.49-0.11
			c0.14-0.07,0.24-0.17,0.31-0.31c0.07-0.14,0.11-0.3,0.11-0.49v-0.66c0-0.2-0.04-0.37-0.11-0.51c-0.07-0.14-0.18-0.25-0.31-0.33
			c-0.14-0.07-0.3-0.11-0.49-0.11h-1.19v-0.59h1.14c0.34,0,0.62,0.06,0.86,0.17s0.42,0.28,0.54,0.5s0.19,0.48,0.19,0.79v0.75
			c0,0.31-0.06,0.58-0.19,0.81s-0.31,0.4-0.54,0.51s-0.53,0.18-0.86,0.18h-1.14V47.29z M56.55,47.69l0.57-0.2l1.02,3.12H57.4
			L56.55,47.69z"/>
	</g>
</g>
</svg>
